<?xml version="1.0" encoding="utf-8"?>
<!-- Generator: Adobe Illustrator 15.1.0, SVG Export Plug-In . SVG Version: 6.00 Build 0)  -->
<!DOCTYPE svg PUBLIC "-//W3C//DTD SVG 1.1//EN" "http://www.w3.org/Graphics/SVG/1.1/DTD/svg11.dtd">
<svg version="1.1"
	 id="svg2" xmlns:dc="http://purl.org/dc/elements/1.1/" xmlns:cc="http://creativecommons.org/ns#" xmlns:rdf="http://www.w3.org/1999/02/22-rdf-syntax-ns#" xmlns:osb="http://www.openswatchbook.org/uri/2009/osb"
	 xmlns="http://www.w3.org/2000/svg" xmlns:xlink="http://www.w3.org/1999/xlink" x="0px" y="0px" width="258px" height="90px"
	 viewBox="0 0 258 90" enable-background="new 0 0 258 90" xml:space="preserve">
<path id="path5778" fill="#F9F9F9" d="M46.49,49.54l-5.049,5.417h4.974v5.584h9.917v-5.584h5.306l-5.05-5.417l-5.046-5.417
	L46.49,49.54z M96.281,38.012h9.722v28.816h-9.722V38.011L96.281,38.012z M101.201,35.669c-1.639,0-2.898-0.411-3.778-1.23
	c-0.878-0.82-1.317-1.913-1.317-3.28c0-1.289,0.439-2.382,1.317-3.28c0.879-0.898,2.139-1.347,3.778-1.347
	c1.64,0,2.899,0.449,3.777,1.347c0.879,0.898,1.318,1.992,1.318,3.28c0,1.367-0.439,2.46-1.317,3.28
	C104.102,35.258,102.842,35.668,101.201,35.669 M120.173,67.41c-2.811,0-4.929-0.751-6.355-2.255
	c-1.426-1.503-2.138-3.603-2.138-6.296V45.213h-3.865v-7.205h3.865v-7.028h9.723v7.028h6.326v7.205h-6.326v12.241
	c0,0.898,0.185,1.532,0.557,1.904c0.371,0.371,0.946,0.556,1.728,0.556c1.054,0,2.206-0.468,3.456-1.405l2.226,6.384
	c-1.132,0.781-2.42,1.396-3.866,1.846s-3.222,0.674-5.33,0.674 M143.707,67.412c-4.451,0-7.956-1.269-10.514-3.808
	c-2.559-2.537-3.836-6.228-3.836-11.069c0-3.514,0.722-6.462,2.167-8.843c1.484-2.46,3.34-4.12,5.565-4.979
	c2.342-0.898,4.509-1.347,6.501-1.347c2.498,0,4.588,0.498,6.266,1.494c1.68,0.996,2.92,2.079,3.721,3.25
	c0.8,1.171,1.375,2.089,1.727,2.753l-6.734,4.334c-0.625-1.289-1.309-2.305-2.051-3.046s-1.641-1.112-2.693-1.112
	c-1.484,0-2.656,0.585-3.515,1.756c-0.859,1.172-1.288,2.948-1.288,5.33c0,2.577,0.507,4.472,1.521,5.682
	c1.016,1.21,2.461,1.815,4.334,1.815c1.484,0,2.725-0.272,3.721-0.82c0.994-0.546,1.94-1.248,2.839-2.107l3.104,7.262
	c-0.938,0.781-2.323,1.553-4.158,2.314C148.547,67.032,146.322,67.413,143.707,67.412 M157.581,66.828V27.704h9.781v11.889
	c0.82-0.586,1.815-1.104,2.987-1.552s2.576-0.674,4.217-0.674c3.436,0,6.004,0.977,7.702,2.929s2.548,4.705,2.548,8.259v18.272
	h-9.78V49.725c0-1.64-0.312-2.84-0.938-3.602c-0.625-0.761-1.446-1.142-2.46-1.142c-0.859,0-1.66,0.195-2.401,0.585
	c-0.741,0.391-1.366,0.801-1.874,1.229v20.031L157.581,66.828L157.581,66.828z M192.598,67.412c-1.562,0-2.793-0.449-3.69-1.348
	s-1.347-2.05-1.347-3.455c0-1.406,0.449-2.578,1.347-3.514c0.898-0.938,2.128-1.406,3.69-1.406c1.483,0,2.674,0.469,3.572,1.406
	c0.898,0.936,1.347,2.107,1.347,3.514c0,1.405-0.438,2.557-1.317,3.455S194.12,67.411,192.598,67.412 M200.556,38.013h9.722v28.816
	h-9.722V38.013L200.556,38.013z M205.476,35.671c-1.64,0-2.899-0.411-3.777-1.23c-0.879-0.82-1.317-1.913-1.317-3.28
	c0-1.289,0.438-2.383,1.317-3.28c0.878-0.898,2.139-1.347,3.777-1.347c1.641,0,2.899,0.449,3.778,1.347s1.318,1.991,1.318,3.28
	c0,1.366-0.439,2.459-1.318,3.28C208.375,35.259,207.116,35.67,205.476,35.671 M227.664,67.412c-2.266,0-4.277-0.381-6.033-1.143
	c-1.758-0.761-3.25-1.816-4.48-3.163s-2.167-2.948-2.812-4.803s-0.967-3.876-0.967-6.062c0-3.241,0.703-6.072,2.108-8.494
	c1.445-2.381,3.252-4.041,5.418-4.978c2.167-0.937,4.422-1.406,6.766-1.406c3.357,0,6.131,0.781,8.316,2.343
	c2.226,1.562,3.787,3.514,4.686,5.856c0.898,2.344,1.348,4.568,1.348,6.678c0,2.186-0.322,4.207-0.967,6.062
	s-1.582,3.456-2.811,4.803c-1.23,1.348-2.734,2.401-4.512,3.163C231.949,67.03,229.929,67.411,227.664,67.412 M227.664,59.914
	c1.64,0,2.83-0.693,3.572-2.08c0.741-1.385,1.113-3.25,1.113-5.593c0-2.226-0.391-4.003-1.172-5.33s-1.952-1.991-3.514-1.991
	c-1.523,0-2.676,0.664-3.457,1.991c-0.78,1.327-1.171,3.104-1.171,5.33c0,2.343,0.38,4.207,1.142,5.593
	c0.762,1.387,1.922,2.08,3.484,2.08 M30.083,30.604c-0.375,0.668-0.896,1.24-1.435,1.777c-1.485,1.476-3.533,2.391-5.776,2.391
	c-0.578,0-2.052-0.34-2.052-0.34v40.272h62.019V34.205c-0.926,0.364-1.705,0.566-2.756,0.566c-2.246,0-4.292-0.915-5.777-2.392
	c-0.538-0.537-0.998-1.145-1.372-1.812c-0.375,0.669-0.846,1.275-1.384,1.812c-1.485,1.475-3.52,2.391-5.764,2.391
	c-2.245,0-4.292-0.915-5.776-2.392c-0.538-0.537-1.01-1.146-1.384-1.812c-0.375,0.668-0.832,1.275-1.371,1.812
	c-1.485,1.475-3.532,2.391-5.777,2.391c-2.245,0-4.291-0.915-5.776-2.392c-0.539-0.536-0.998-1.146-1.372-1.812
	c-0.375,0.668-0.844,1.275-1.384,1.812c-1.485,1.477-3.521,2.391-5.764,2.391c-2.245,0-4.292-0.915-5.776-2.392
	c-0.538-0.536-0.946-1.11-1.321-1.777L30.083,30.604z M39.003,38.044c2.705,0,4.629,1.751,5.311,4.392h14.951
	c0.68-2.64,2.592-4.392,5.297-4.392c4.297,0,9.021,4.412,10.496,9.804l3.524,12.874c1.475,5.392-0.837,9.804-5.135,9.804
	c-3.772,0-7.873-3.398-9.816-7.877H39.935c-1.943,4.479-6.043,7.877-9.816,7.877c-4.298,0-6.61-4.412-5.135-9.803l3.524-12.875
	c1.471-5.392,6.194-9.804,10.492-9.804H39.003z M25.247,11.069l-9.263,10.873v3.096c0,3.925,3.608,7.375,6.884,7.375
	c3.934,0,7.211-3.315,7.211-7.249c0,3.934,3.164,7.249,7.098,7.249c3.934,0,6.998-3.315,6.998-7.249
	c0,3.934,3.365,7.249,7.299,7.249c3.933,0,7.198-3.315,7.198-7.249c0,3.934,3.178,7.249,7.11,7.249c3.934,0,6.985-3.315,6.985-7.249
	c0,3.934,3.379,7.249,7.312,7.249c3.934,0,7.186-3.315,7.186-7.249v-3.222L77.198,11.068C59.621,11.022,25.247,11.068,25.247,11.069
	L25.247,11.069z"/>
</svg>
