<?xml version="1.0" encoding="utf-8"?>
<!-- Generator: Adobe Illustrator 15.1.0, SVG Export Plug-In . SVG Version: 6.00 Build 0)  -->
<!DOCTYPE svg PUBLIC "-//W3C//DTD SVG 1.1//EN" "http://www.w3.org/Graphics/SVG/1.1/DTD/svg11.dtd">
<svg version="1.1" id="Layer_1" xmlns="http://www.w3.org/2000/svg" xmlns:xlink="http://www.w3.org/1999/xlink" x="0px" y="0px"
	 width="771px" height="550px" viewBox="0 0 771 550" enable-background="new 0 0 771 550" xml:space="preserve">
<g>
	<g>
		<path fill="#EFEFEF" d="M190.125,503.412c-9.312-0.207-19.714-5.286-28.763-7.713c32.958-118.494,152.054-163.792,208.959-261.744
			c25.49-39.862,234.335-238.042,252.093-155.214c-93.812,28.726-171.091,90.089-227.639,172.126
			C339.169,343.062,218.361,390.769,190.125,503.412C190.125,503.412,190.144,503.205,190.125,503.412z"/>
	</g>
	<g>
		<path fill="#EFEFEF" d="M609.416,503.506c-64.242-36.701-116.481-61.833-170.17-114.299
			C387.213,338.266,357.736,276.959,323.179,219c-16.215-33.353-49.343-69.358-84.877-91.236
			c-17.269-12.021-37.492-25.583-54.648-34.876c-6.734-4.157-28.744-10.516-31.641-15.764c-14.598-8.164,2.709-31.434,10.252-26.581
			C254.629,82.277,325.079,168.284,367.48,245.43c32.694,52.841,69.771,100.868,115.86,144.886
			c30.286,27.898,56.304,52.617,94.942,68.719C601.327,472.75,635.564,468.63,609.416,503.506
			C609.359,503.469,609.416,503.506,609.416,503.506z"/>
	</g>
	<g>
		<path fill="#C1C1C1" d="M130.868,308.336l-0.038-7.205l-0.169-12.039l-0.696-14.297l-1.223-13.187l-1.392-10.459l-2.54-14.579
			l-1.599-7.882l9.443,0.696l12.303-0.188l9.406-1.11l9.801-2.05l9.952-2.615l11.306-3.123l2.107,6.96l2.445,8.446l-7.919,1.655
			l-5.832,1.449l-8.202,1.919l-11.813,2.163l-10.44,1.054l0.921,5.229l0.734,4.251l1.016,6.189l5.851-0.583l7.731-1.072
			l10.158-2.013l6.133-1.392l8.409-1.636l1.618,6.471l1.43,6.678l-6.114,1.167l-6.866,1.354l-10.384,2.257l-10.478,1.994
			l-5.38,0.771l0.847,6.773l0.79,6l0.884,7.995l0.865,8.315l-6.96,1.787l-6.697,1.636L130.868,308.336z"/>
		<path fill="#C1C1C1" d="M209.915,290.314v-5.061l-0.264-6.979c0,0-0.263-2.652-0.64-5.305c-0.338-2.577-0.752-5.286-0.752-5.286
			l-1.749-8.409c0,0-0.621-2.633-1.261-5.286c-0.602-2.596-1.223-5.248-1.223-5.248l-1.975-8.428l-1.467-5.869l-2.352-8.766
			l-2.276-7.788l7.224-1.147l5.625-0.226l7.299,0.546l6.716,1.091l6.715,1.129c1.731,0.32,3.443,0.79,5.136,1.448
			c1.693,0.583,3.292,1.317,4.947,2.257c1.599,0.959,3.104,1.938,4.515,2.973c1.411,1.016,2.728,2.107,3.95,3.198
			c1.204,1.167,2.257,2.37,3.273,3.593c0.94,1.166,1.862,2.464,2.615,3.837c0.771,1.298,1.43,2.615,1.881,3.913
			c0.47,1.374,0.828,2.822,0.997,4.176c0.32,2.107,0.32,4.101,0.113,6.095c-0.226,1.975-0.659,3.781-1.317,5.53
			c-0.659,1.693-1.562,3.198-2.652,4.477c-1.054,1.298-2.333,2.314-3.856,3.104l3.16,5.098l2.859,5.737l2.126,6.265l1.843,6.527
			l1.919,7.299l-5.644-1.768l-4.684-1.279l-3.706-0.865l-1.806-6.002l-1.279-3.668l-2.276-4.76l-3.706-6.038l-3.649-4.722
			l-4.364-0.245l-5.531-0.075l1.523,6.133l0.941,6.001l0.301,5.305l-0.207,6.094l-4.213,0.151l-6.49,0.508L209.915,290.314z
			 M220.205,251.356l6.208,0.301l7.562,0.752c1.975,0.151,3.423-0.526,4.289-2.069c1.016-1.467,1.147-3.461,0.526-6.057
			c-0.489-2.652-1.674-4.834-3.555-6.584c-1.825-1.844-3.687-2.972-5.531-3.311l-7.167-1.147l-6.377-0.771l0.847,5.135l1.562,7.525
			L220.205,251.356z"/>
	</g>
	<g>
		<path fill="#C1C1C1" d="M485.297,305.213l-0.677-9.895c0,0-0.188-4.062-0.414-8.07c-0.188-3.932-0.396-7.731-0.396-7.731
			s-0.169-3.048-0.301-6c-0.113-2.935-0.244-5.55-0.244-5.55s-0.132-3.348-0.244-6.358c-0.15-3.029-0.283-5.982-0.283-5.982
			s0.02-2.445,0.038-4.891c0.038-2.389,0.038-4.891,0.038-4.891s0.169-2.069,0.319-4.271c0.132-2.182,0.263-4.402,0.263-4.402
			s0.34-2.333,0.621-4.627c0.32-2.314,0.678-4.646,0.678-4.646l7.713-0.696l10.309-0.884l11.625-0.414
			c3.556-0.376,6.961-0.395,10.196-0.226c1.599,0.169,3.217,0.32,4.741,0.602c1.504,0.244,3.027,0.639,4.457,1.034
			c2.954,0.866,5.625,2.107,7.958,3.631c2.37,1.524,4.401,3.499,6.17,5.644c1.769,2.182,3.33,4.552,4.646,7.092
			c1.279,2.577,2.408,5.286,3.33,8.165c0.94,2.859,1.655,5.662,2.276,8.409c0.602,2.765,1.016,5.342,1.298,7.863
			c0.301,2.765,0.396,5.192,0.244,7.412c-0.188,2.069-0.563,4.026-1.241,5.737c-0.658,1.637-1.562,3.123-2.766,4.479
			c-1.129,1.223-2.615,2.369-4.402,3.441c-1.843,0.941-3.932,1.881-6.301,2.635c-2.445,0.883-5.099,1.542-7.996,2.2
			c-4.326,1.091-9.066,2.106-14.07,2.954c-1.637,0.338-3.387,0.62-5.079,0.996l-9.331,1.938c0,0-3.047,0.753-6.095,1.449
			c-3.01,0.658-6.001,1.336-6.001,1.336s-2.821,0.677-5.625,1.354C488.025,304.631,485.297,305.213,485.297,305.213z
			 M539.361,263.132c-0.281-3.198-1.053-6.245-2.295-9.199c-1.298-2.935-2.953-5.512-5.173-7.731
			c-2.295-1.957-5.042-3.518-8.183-4.421c-1.562-0.47-3.18-0.828-4.91-0.959c-1.693-0.207-3.461-0.207-5.324-0.094
			c0,0-3.028,0.094-6.038,0.226c-3.01,0.15-6.038,0.301-6.038,0.301l-0.17,4.327v5.531l0.17,4.571l0.281,4.703l0.658,8.052
			l0.641,6.81l0.658,7.393c0,0,3.16-0.264,6.283-0.357c3.16-0.075,6.283-0.112,6.283-0.112c1.938,0.074,3.781-0.113,5.549-0.357
			c1.73-0.245,3.367-0.584,4.872-1.072c3.104-0.96,5.681-2.277,7.788-3.838c1.976-1.562,3.387-3.386,4.232-5.7
			C539.438,268.851,539.682,266.217,539.361,263.132z"/>
		<path fill="#C1C1C1" d="M573.448,305.533l-0.301-6.547c0,0-0.095-2.972-0.282-5.943c-0.113-2.992-0.357-6.039-0.357-6.039
			s-0.17-3.387-0.395-6.941c-0.283-3.781-0.678-7.694-0.678-7.694s-0.244-3.461-0.433-7.13c-0.226-3.725-0.357-7.562-0.357-7.562
			s0-3.48,0.075-6.904c0.094-3.273,0.264-6.49,0.264-6.49l0.639-7.318c0,0,0.264-2.464,0.546-4.91
			c0.245-2.408,0.526-4.741,0.526-4.741s2.333,0.828,4.609,1.599c2.182,0.959,4.364,1.844,4.364,1.844s2.276,0.922,4.534,1.956
			c2.389,0.771,4.797,1.637,4.797,1.637l-1.223,5.042l-1.224,7.675l-0.451,7.562l0.433,9.745c0,0,1.26-1.637,2.577-3.16
			c1.335-1.354,2.728-2.69,2.728-2.69l3.518-2.502l3.951-2.238l6.452-3.367l4.478-2.709l5.379-3.875l3.367-2.935l5.344-5.512
			l6.357,1.054c0,0,2.333,0.376,4.685,0.677c2.352,0.244,4.835,0.395,4.835,0.395s-1.844,1.862-3.443,3.706
			c-1.617,1.862-3.085,3.649-3.085,3.649l-3.272,4.139c0,0-1.279,1.449-2.559,3.01c-1.223,1.449-2.54,2.935-2.54,2.935l-5.606,4.854
			l-5.624,4.195l-6.434,4.44l3.442,4.533l5.662,7.092c0,0,1.637,2.107,3.18,3.932c1.58,1.881,3.123,3.631,3.123,3.631
			s1.844,2.275,3.725,4.458c1.824,2.106,3.668,4.214,3.668,4.214l7.167,8.371l6.358,7.807l-6.452-0.037h-5.737l-6.923,0.15
			c0,0-1.862-2.088-3.743-4.214c-1.882-2.106-3.801-4.214-3.801-4.214s-2.182-2.258-4.326-4.609
			c-2.201-2.445-4.383-5.061-4.383-5.061s-1.976-2.426-3.875-4.984c-1.994-2.822-3.932-5.662-3.932-5.662l-4.723-7.262
			c0,0-2.031,2.502-4.101,5.174c-2.069,2.746-4.177,5.492-4.177,5.492v6.961c0,0,0,2.539,0.02,4.928
			c-0.037,2.239-0.02,4.591-0.02,4.591l0.828,6.772l-6.133-1.43l-4.346-1.317L573.448,305.533z"/>
	</g>
</g>
</svg>
