<?xml version="1.0" encoding="iso-8859-1"?>
<!-- Generator: Adobe Illustrator 15.1.0, SVG Export Plug-In . SVG Version: 6.00 Build 0)  -->
<!DOCTYPE svg PUBLIC "-//W3C//DTD SVG 1.1//EN" "http://www.w3.org/Graphics/SVG/1.1/DTD/svg11.dtd">
<svg version="1.1" id="Layer_1" xmlns="http://www.w3.org/2000/svg" xmlns:xlink="http://www.w3.org/1999/xlink" x="0px" y="0px"
	 width="32px" height="32px" viewBox="0 0 32 32" style="enable-background:new 0 0 32 32;" xml:space="preserve">
<circle id="circle_x5F_bg_20_" style="fill:#2C4662;" cx="16" cy="16" r="16.005"/>
<linearGradient id="SVGID_1_" gradientUnits="userSpaceOnUse" x1="15.686" y1="6.1343" x2="15.686" y2="25.5771">
	<stop  offset="0" style="stop-color:#FFFFFF"/>
	<stop  offset="1" style="stop-color:#EBEEF2"/>
</linearGradient>
<path style="fill:url(#SVGID_1_);" d="M16.55,6.219v4.58h4.576v3.533H16.55v5.074c0,1.15-0.016,1.811,0.105,2.137
	c0.121,0.324,0.424,0.66,0.754,0.855c0.439,0.262,0.938,0.393,1.502,0.393c1.004,0,2-0.324,2.99-0.977v3.123
	c-0.844,0.396-1.609,0.676-2.297,0.838c-0.686,0.16-1.428,0.24-2.223,0.24c-0.906,0-1.439-0.115-2.135-0.342
	c-0.695-0.229-1.289-0.557-1.779-0.977c-0.492-0.424-0.832-0.875-1.023-1.35c-0.188-0.477-0.283-1.168-0.283-2.074v-6.941H9.472
	v-2.805c0.777-0.252,1.68-0.613,2.232-1.084c0.555-0.475,1-1.039,1.336-1.701c0.336-0.66,0.568-1.502,0.693-2.523H16.55z"/>
</svg>
